<?xml version="1.0" standalone="no"?>
<!DOCTYPE svg PUBLIC "-//W3C//DTD SVG 20010904//EN"
 "http://www.w3.org/TR/2001/REC-SVG-20010904/DTD/svg10.dtd">
<svg version="1.0" xmlns="http://www.w3.org/2000/svg"
 width="282.000000pt" height="80.000000pt" viewBox="0 0 282.000000 80.000000"
 preserveAspectRatio="xMidYMid meet">
<metadata>
Created by potrace 1.15, written by Peter Selinger 2001-2017
</metadata>
<g transform="translate(0.000000,80.000000) scale(0.100000,-0.100000)"
fill="#000000" stroke="none">
<path d="M2275 705 c-102 -50 -165 -155 -166 -282 -2 -151 48 -245 161 -304
37 -20 60 -24 130 -24 75 0 91 3 132 27 105 62 153 157 152 298 -1 101 -21
156 -84 224 -78 85 -220 111 -325 61z m206 -35 c43 -23 92 -90 109 -150 15
-53 12 -180 -6 -239 -29 -99 -122 -161 -220 -146 -57 8 -126 69 -151 133 -27
70 -25 231 4 292 54 116 163 161 264 110z"/>
<path d="M218 644 c2 -40 1 -174 -3 -298 -6 -178 -10 -226 -21 -226 -7 0 -16
-5 -19 -10 -4 -6 20 -10 64 -10 41 0 71 4 71 10 0 6 -9 10 -20 10 -11 0 -20 6
-20 13 0 6 -2 117 -5 246 -3 128 -2 238 1 243 4 5 16 -14 29 -44 27 -66 178
-413 196 -451 27 -59 38 -41 169 273 28 69 58 139 65 155 8 17 20 44 27 60 11
26 13 0 16 -200 3 -263 1 -290 -31 -301 -17 -6 -12 -8 26 -11 26 -2 67 -3 90
-1 l42 4 -28 12 -28 12 3 293 3 294 -48 -1 -48 -1 -80 -185 c-44 -102 -85
-198 -93 -215 -7 -16 -19 -45 -26 -63 -7 -18 -16 -29 -20 -25 -4 4 -54 112
-110 238 -56 127 -107 236 -113 243 -6 7 -27 12 -52 11 l-42 -3 5 -72z"/>
<path d="M1135 468 c-59 -139 -116 -274 -127 -300 -11 -27 -27 -48 -34 -48 -8
0 -14 -4 -14 -10 0 -6 27 -10 60 -10 33 0 60 4 60 10 0 6 -7 10 -15 10 -21 0
-19 8 14 92 l30 73 138 3 138 3 32 -83 c25 -66 28 -84 17 -86 -8 -2 -14 -8
-14 -13 0 -5 34 -9 75 -9 77 0 87 4 59 24 -13 10 -216 474 -246 564 -9 26 -17
32 -39 32 -26 0 -31 -10 -134 -252z m173 18 c28 -74 52 -139 52 -145 0 -7 -40
-11 -116 -11 -106 0 -116 2 -111 18 12 41 111 272 116 272 3 0 30 -60 59 -134z"/>
<path d="M1668 420 c2 -260 1 -300 -12 -300 -8 0 -18 -5 -21 -10 -4 -6 23 -10
74 -10 47 0 81 4 81 10 0 6 -9 10 -20 10 -25 0 -32 38 -28 155 l3 90 85 5 c98
6 153 29 186 78 44 65 38 155 -14 212 -36 39 -119 60 -242 60 l-95 0 3 -300z
m227 240 c70 -34 93 -102 59 -173 -23 -48 -64 -69 -133 -70 -32 0 -63 3 -69 7
-13 8 -18 237 -5 249 14 15 108 6 148 -13z"/>
</g>
</svg>
