<?xml version="1.0" encoding="UTF-8"?>
<!-- Generator: Adobe Illustrator 19.0.0, SVG Export Plug-In . SVG Version: 6.00 Build 0)  -->
<svg version="1.1" id="Layer_1" xmlns="http://www.w3.org/2000/svg" xmlns:xlink="http://www.w3.org/1999/xlink" x="0px" y="0px" viewBox="0 0 1488.2 262" style="enable-background:new 0 0 1488.2 262;" xml:space="preserve">
<style type="text/css">
	.st0{fill:#FE8026;}
	.st1{fill:#FFFFFF;}
</style>
<g id="XMLID_73_">
	<g id="XMLID_72_">
		<g id="XMLID_29_">
			<path id="XMLID_7_" d="M201.3,100.8c-13.9-3.1-38.6-8.5-38.6-18.7c0-7.4,6.5-13.3,21.8-13.3c5.1,0,16.2,1.1,23.5,4v18.1h46.5     V36.1C233.9,26.8,203,22.5,180,22.5c-64.1,0-89.9,27.2-89.9,66.1c0,28.4,18.7,47.1,51.9,55.9c15.9,4.2,32,7.1,42.5,10.2     c6,1.7,9.9,5.1,9.9,11.6c0,4.3-2.8,12.5-24.1,12.5c-5.6,0-21.8-1.1-31.2-4V155H93.2v58.1c25.8,9.4,55.6,13.3,81.7,13.3     c68.7,0,96.7-25,96.7-64.9C271.6,123.7,239.2,108.7,201.3,100.8z"/>
			<path id="XMLID_45_" d="M461.2,178.8v39.4c-5.1,2-10.6,3.6-16.2,4.9c-8.7,2-17.6,3-25.5,3c-32.3,0-42-13-42-36.6v-45.1     c0-12.2-5.4-16.4-14.2-16.4c-3.7,0-9.4,2.3-13.3,6.2v87.9h-67.8v-165h-15.9V16.9h83.6v77.4c13.6-10.8,28.1-16.2,43.1-16.2     c34.3,0,51.9,17.9,51.9,52.5v48.2H461.2z"/>
			<path id="XMLID_50_" d="M636.2,155.4c1-0.8,1.5-2.9,1.5-6.3c0-13.1-1.9-25.1-5.8-36c-3.9-10.8-9.4-20.1-16.5-27.9     c-7.1-7.8-15.7-13.8-25.8-18.2c-10-4.4-21.3-6.6-33.8-6.6c-12.7,0-24.2,2.1-34.5,6.3s-19.2,9.9-26.5,17.3     c-7.3,7.4-13,16.1-17,26.2c-4,10.1-6,21.2-6,33.1s1.9,23,5.7,33.3c3.8,10.2,9.3,19.1,16.5,26.5c7.2,7.5,16.1,13.3,26.5,17.5     c10.4,4.2,22.3,6.3,35.6,6.3c13.7,0,25-1.6,34.1-4.8c9-3.2,16.3-6.9,21.7-11c0.4-0.3,0.8-0.6,1.1-0.9c0,0,0.1-0.1,0.1-0.1     c12.6-9.3,18.3-22.3,18.3-22.3l-37-21.4c-0.8,0.9-1.7,1.7-2.5,2.5c-0.5,0.5-1,0.9-1.5,1.3c-7.7,6.5-16,9.4-17.2,9.8     c0,0-0.1,0-0.1,0c0,0-0.1,0-0.1,0c-3.3,0.8-7.3,1.3-11.9,1.3c-0.6,0-1.2,0-1.8,0h0c-30.1,0-32.2-24.7-32.2-24.7h102.8     C633.1,156.6,635.2,156.2,636.2,155.4z M527.2,125.8c0-9.7,2.9-17,8.6-21.8c5.7-4.8,12.1-7.1,19.2-7.1c7.1,0,13.5,2.4,19.2,7.1     c5.7,4.8,8.6,12,8.6,21.8H527.2z"/>
			<path id="XMLID_19_" d="M586.6,168.9c-0.5,0.5-1,0.9-1.5,1.3c0.1-0.1,0.1-0.2,0.2-0.2C585.7,169.6,586.2,169.2,586.6,168.9z"/>
			<path id="XMLID_40_" d="M801.3,180.1v42c-0.8,0.1-1.7,0.2-2.5,0.3c-4.5,0.5-8.9,0.8-13.1,0.8c-4.7,0-9-0.3-12.8-0.8     c-5-0.7-9.2-1.9-12.8-3.6c-4.4-2-7.8-4.8-10.3-8.2c-0.2-0.3-0.5-0.6-0.7-1l-41.4-59.3v72h-59.2V57.1h0.3v-0.4h-0.3v0.4h-15.5     V16.8h74.8v87.4l45.3-37.5c1.2-1,2.2-1.6,3.1-1.9c0.5-0.2,1.1-0.3,1.8-0.4c0.6-0.1,1.2-0.1,1.9-0.1h24.5v42.3H770l-21.4,19     l19.5,28.1l18.3,26.3H801.3z"/>
			<rect id="XMLID_60_" x="660.6" y="56.7" width="0.3" height="0.4"/>
			<path id="XMLID_9_" d="M772,64.3c-0.7,0-1.4,0-1.9,0.1v-0.1H772z"/>
			<path id="XMLID_39_" d="M978.8,180.1v42.3h-70.2V204l-0.1-0.7c-1.8,2.2-4.2,4.6-7.1,7.3c-3,2.7-6.5,5.2-10.7,7.6s-9,4.4-14.4,6.1     s-11.7,2.5-18.6,2.5c-15.7,0-27.2-4.5-34.5-13.4c-7.3-8.9-11-20.6-11-35.1v-71.7h-11.9V64.3h68.8c2.6,0,3.9,1.3,3.9,3.9v84.6     c0,1,0,1.9,0,2.8c0,0.1,0,0.1,0,0.2c0.1,1.8,0.2,3.5,0.3,5.1c1.7,8.1,8.9,14.1,17.5,14.1c6.7,0,12.5-3.7,15.6-9.1     c1.5-2.6,2.3-5.6,2.3-8.9c0-0.4,0-0.9,0-1.3c0-0.4-0.1-0.9-0.1-1.3c0-0.6,0-1.2,0-1.7V68.2c0-0.3,0-0.7,0.1-1v-2.9h58.3v115.7     H978.8z"/>
			<polygon id="XMLID_24_" points="1237.4,180.1 1237.4,222.4 1154.3,222.4 1154.3,180.1 1166.2,180.1 1166.2,106.7 1154.3,106.7      1154.3,64.3 1225.5,64.3 1225.5,180.1    "/>
			<rect id="XMLID_32_" x="1160.6" y="16.8" width="59.2" height="39.9"/>
			<polygon id="XMLID_28_" points="1143.6,180.1 1143.6,222.4 1072.5,222.4 1072.5,56.7 1060.5,56.7 1060.5,16.9 1131.7,16.9      1131.7,180.1    "/>
			<polygon id="XMLID_14_" points="1060.5,180.1 1060.5,222.4 989.4,222.4 989.4,56.7 977.5,56.7 977.5,16.9 1048.6,16.9      1048.6,180.1    "/>
			<rect id="XMLID_27_" x="660.6" y="56.7" width="0.3" height="0.4"/>
		</g>
		<path id="XMLID_13_" class="st0" d="M80.1,252.8v-17.9h-7.8c-11.7,0-14-8.4-14-18.2v-51.5c0-21.3-1.4-33.3-17.9-41.2v-0.3    c15.7-3.9,17.9-18.5,17.9-35V45.6c0-10.4,3.6-18.5,14.8-18.5h7V9.2H60c-26,0-28,23-28,40.3v37.2c0,16-4.8,27.2-19,29.7v15.9    c14.3,2,19,13.7,19,28v56.3c0,19.9,3.9,36.1,29.7,36.1H80.1z"/>
		<path id="XMLID_37_" class="st0" d="M1263.9,252.8c25.8,0,29.7-16.2,29.7-36.1v-56.3c0-14.3,4.8-26,19-28v-15.9    c-14.3-2.5-19-13.7-19-29.7V49.5c0-17.4-2-40.3-28-40.3h-20.2v17.9h7c11.2,0,14.9,8.1,14.9,18.5v43.1c0,16.5,2.2,31.1,17.9,35v0.3    c-16.5,7.8-17.9,19.9-17.9,41.2v51.5c0,9.8-2.2,18.2-14,18.2h-7.8v17.9H1263.9z"/>
	</g>
	<g id="XMLID_71_">
		<path id="XMLID_52_" class="st0" d="M1403.1,203.2c39.8,0,72.2-32.3,72.2-72.2c0-39.9-32.3-72.2-72.2-72.2    c-39.9,0-72.2,32.3-72.2,72.2C1330.9,170.9,1363.2,203.2,1403.1,203.2"/>
		<g id="XMLID_30_">
			<path id="XMLID_38_" class="st1" d="M1355.9,131c0-3.4,0.8-6,2.3-7.9c1.5-1.8,3.6-2.8,6.4-2.8c1.5,0,2.7,0.3,3.8,0.8     c1.1,0.5,2,1.2,2.7,2.2c0.7,0.9,1.3,2.1,1.6,3.4c0.4,1.3,0.5,2.8,0.5,4.4c0,3.4-0.8,6-2.3,7.9c-1.5,1.8-3.7,2.8-6.4,2.8     c-1.5,0-2.8-0.3-3.9-0.8c-1.1-0.5-2-1.2-2.7-2.2c-0.7-0.9-1.2-2.1-1.6-3.4C1356.1,134.1,1355.9,132.6,1355.9,131z M1360.1,131     c0,1,0.1,2,0.3,2.9s0.4,1.6,0.8,2.2c0.4,0.6,0.8,1.1,1.4,1.5c0.6,0.4,1.2,0.5,2,0.5c1.4,0,2.5-0.6,3.3-1.7s1.2-2.9,1.2-5.4     c0-1-0.1-1.9-0.2-2.8s-0.4-1.6-0.8-2.3s-0.8-1.1-1.4-1.5c-0.6-0.4-1.3-0.5-2.1-0.5c-1.4,0-2.5,0.6-3.3,1.7     C1360.5,126.8,1360.1,128.6,1360.1,131z"/>
			<path id="XMLID_46_" class="st1" d="M1381.2,130.6l-1.6-3.2h-0.1l0.5,3.2v10.7h-3.8v-20.6h2.9l7.8,10.9l1.6,3.1h0.1l-0.5-3.1     v-10.8h3.8v20.6h-2.9L1381.2,130.6z"/>
			<path id="XMLID_48_" class="st1" d="M1408.3,141.2h-13v-20.5h4v16.9h9V141.2z"/>
			<path id="XMLID_51_" class="st1" d="M1410.8,120.8h4v20.5h-4V120.8z"/>
			<path id="XMLID_54_" class="st1" d="M1423.8,130.6l-1.6-3.2h-0.1l0.5,3.2v10.7h-3.8v-20.6h2.9l7.8,10.9l1.6,3.1h0.1l-0.5-3.1     v-10.8h3.8v20.6h-2.9L1423.8,130.6z"/>
			<path id="XMLID_56_" class="st1" d="M1438,120.8h12.1v3.6h-8.1v4.8h7.4v3.6h-7.4v5h8.3v3.6H1438V120.8z"/>
		</g>
	</g>
</g>
</svg>